<?xml version="1.0"?>
<svg xmlns="http://www.w3.org/2000/svg" height="512px" viewBox="0 -12 509.69134 509" width="512px" class=""><g><path d="m283.46875 223.101562c14.398438 17.3125 33.402344 30.195313 54.816406 37.15625v-26.148437l-36.570312-21.945313zm0 0" data-original="#000000" class="active-path" data-old_color="#010100" fill="#000000"/><path d="m256 147.214844c-.003906 11.859375 1.769531 23.648437 5.269531 34.980468l22.160157-13.296874v-44.507813l-21.839844-13.128906c-3.703125 11.625-5.589844 23.753906-5.589844 35.953125zm0 0" data-original="#000000" class="active-path" data-old_color="#010100" fill="#000000"/><path d="m338.285156 59.183594v-25.007813c-21.089844 6.867188-39.847656 19.484375-54.15625 36.433594l17.585938 10.519531zm0 0" data-original="#000000" class="active-path" data-old_color="#010100" fill="#000000"/><path d="m465.589844 70.609375c-14.3125-16.949219-33.066406-29.566406-54.160156-36.433594v25.003907l36.578124 21.953124zm0 0" data-original="#000000" class="active-path" data-old_color="#010100" fill="#000000"/><path d="m411.429688 168.898438v-44.507813l-36.574219-21.941406-36.570313 21.941406v44.507813l36.570313 21.941406zm0 0" data-original="#000000" class="active-path" data-old_color="#010100" fill="#000000"/><path d="m268.644531 94.171875 24.203125 14.542969c5.488282 3.316406 8.851563 9.261718 8.867188 15.675781v44.503906c-.019532 6.414063-3.378906 12.355469-8.867188 15.675781l-24.636718 14.78125c1.460937 2.984376 3.042968 5.894532 4.742187 8.726563l24.054687-14.417969c2.898438-1.738281 6.515626-1.738281 9.410157.003906l41.277343 24.761719c5.492188 3.320313 8.855469 9.265625 8.875 15.683594v30.40625c12.101563 2.078125 24.46875 2.078125 36.574219 0v-30.40625c.015625-6.414063 3.378907-12.355469 8.867188-15.671875l36.582031-21.953125c5.78125-3.476563 13.011719-3.480469 18.800781-.019531l19.367188 11.613281c1.703125-2.835937 3.285156-5.746094 4.746093-8.726563l-24.628906-14.777343c-5.492187-3.320313-8.855468-9.261719-8.878906-15.679688v-44.503906c.015625-6.417969 3.378906-12.359375 8.867188-15.679687l24.203124-14.535157c-1.484374-2.957031-3.085937-5.835937-4.804687-8.636719l-18.871094 11.285157c-5.785156 3.464843-13.003906 3.460937-18.785156-.007813l-36.589844-21.949218c-5.492187-3.324219-8.855469-9.265626-8.875-15.6875v-29.265626c-12.105469-2.074218-24.472656-2.074218-36.574219 0v29.265626c-.015624 6.414062-3.378906 12.355468-8.867187 15.675781l-36.589844 21.953125c-5.78125 3.476562-13.007812 3.476562-18.792969.011718l-18.871093-11.285156c-1.714844 2.8125-3.316407 5.691406-4.804688 8.636719zm51.355469 30.222656c.019531-6.414062 3.378906-12.355469 8.867188-15.671875l36.582031-21.953125c5.789062-3.480469 13.03125-3.480469 18.820312 0l36.574219 21.945313c5.488281 3.320312 8.851562 9.261718 8.871094 15.679687v44.5c-.019532 6.414063-3.378906 12.355469-8.867188 15.675781l-36.582031 21.949219c-5.789063 3.484375-13.03125 3.484375-18.820313 0l-36.574218-21.941406c-5.488282-3.324219-8.851563-9.265625-8.871094-15.683594zm0 0" data-original="#000000" class="active-path" data-old_color="#010100" fill="#000000"/><path d="m411.429688 234.105469v26.148437c21.414062-6.960937 40.421874-19.84375 54.816406-37.160156l-18.246094-10.9375zm0 0" data-original="#000000" class="active-path" data-old_color="#010100" fill="#000000"/><path d="m488.445312 182.191406c7.132813-23.121094 7.019532-47.875-.324218-70.933594l-21.84375 13.128907.007812 44.507812zm0 0" data-original="#000000" class="active-path" data-old_color="#010100" fill="#000000"/><path d="m18.285156 128.90625c.292969 9.941406 2.433594 19.738281 6.308594 28.894531 18.902344-.058593 37.253906-6.355469 52.207031-17.921875 23.863281-17.917968 30.445313-30.992187 32.273438-36.207031-13.164063-21.027344-24.59375-41.324219-34.925781-62.078125-19.015626-37.941406-57.507813-41.5078125-74.148438-41.234375v96.183594c2.90625.941406 5.609375 2.429687 7.953125 4.386719 7.460937 7.308593 11.253906 17.574218 10.332031 27.976562zm0 0" data-original="#000000" class="active-path" data-old_color="#010100" fill="#000000"/><path d="m123.0625 117.203125c-8.9375 14.832031-20.976562 27.558594-35.292969 37.304687-19.1875 14.625-42.804687 22.238282-66.921875 21.578126 5.667969 19.289062 20.386719 54.671874 56.410156 72.683593 7.3125 3.660157 14.628907 7.132813 21.941407 10.605469 47.542969 22.765625 92.617187 44.253906 118.035156 100.296875 17.0625 7.445313 36.914063 4.070313 50.558594-8.59375 5.757812-4.597656 9.230469-11.472656 9.511719-18.832031-.953126-5.1875-3.867188-9.804688-8.140626-12.894532-.972656-.652343-1.8125-1.492187-2.46875-2.464843-.546874-.824219-55.3125-83.019531-82.558593-128.367188-16.910157-26.519531-37.46875-50.527343-61.074219-71.316406zm0 0" data-original="#000000" class="active-path" data-old_color="#010100" fill="#000000"/><path d="m499.839844 375.949219c-3.382813 1.828125-7.039063 3.65625-11.0625 5.574219-5.121094 2.378906-10.699219 4.9375-16.730469 7.40625v.09375c-6.675781 2.648437-13.808594 5.394531-21.121094 8.042968-5.761719 1.921875-11.703125 3.839844-17.738281 5.578125-18.902344 5.910157-38.53125 9.171875-58.332031 9.691407-18.632813-.835938-36.789063 6.042968-50.191407 19.015624-10.976562 10.941407-25.746093 17.226563-41.234374 17.554688-20.058594-.234375-39.820313-4.886719-57.875-13.621094.257812 12.246094 6.601562 23.5625 16.914062 30.171875h.039062l7.246094 14.433594c1.085938 2.167969 2.988282 3.8125 5.289063 4.574219 2.300781.765625 4.8125.582031 6.976562-.507813 4.019531-2.050781 5.902344-6.753906 4.414063-11.011719l.082031.007813c8.027344.414063 16.042969-.957031 23.476563-4.015625l5.464843 10.933594c1.429688 2.976562 4.351563 4.949218 7.644531 5.167968 3.292969.214844 6.445313-1.359374 8.25-4.125 1.808594-2.761718 1.984376-6.28125.460938-9.210937l-6.027344-12.070313.042969-.027343c9.054687-7.46875 18.71875-14.167969 28.890625-20.023438h.019531l6.433594 12.867188c1.460937 2.921875 4.371094 4.84375 7.632813 5.039062 3.257812.195313 6.375-1.363281 8.175781-4.089843 1.800781-2.726563 2.007812-6.207032.546875-9.128907l-6.183594-12.367187h.015625c12.707031-4.496094 25.6875-8.191406 38.859375-11.0625 12.433594-3.019532 27.152344-6.675782 46.078125-11.976563l3.472656 7.039063c1.578125 3.09375 4.757813 5.039062 8.230469 5.027344 1.394531.015624 2.773438-.296876 4.023438-.914063 4.542968-2.269531 6.417968-7.769531 4.207031-12.34375l-2.011719-4.019531c.089844 0 .179688-.09375.273438-.09375 7.183593-2.070313 14.160156-4.792969 20.84375-8.136719l1.097656 2.195313c1.519531 3.101562 4.683594 5.058593 8.136718 5.027343 1.433594.015625 2.851563-.328125 4.117188-1.003906 2.164062-1.082031 3.808594-2.988281 4.5625-5.289063.757812-2.300781.5625-4.808593-.542969-6.964843l-2.011719-4.023438c3.433594-2.742187 6.503907-5.90625 9.144532-9.414062zm0 0" data-original="#000000" class="active-path" data-old_color="#010100" fill="#000000"/><path d="m505.507812 327.398438c-4.257812.914062-8.378906 2.390624-12.25 4.390624-8.378906 4.3125-17.566406 6.835938-26.972656 7.40625-8.136718-.464843-16.199218-1.8125-24.046875-4.023437-11.90625-3.019531-24-5.25-36.203125-6.675781.84375 8.105468-.816406 16.273437-4.753906 23.40625-1.519531 3.101562-4.683594 5.058594-8.136719 5.027344-1.4375.015624-2.851562-.328126-4.117187-1.003907-2.164063-1.082031-3.808594-2.988281-4.566406-5.289062-.753907-2.300781-.558594-4.808594.542968-6.964844 3.15625-4.75 3.902344-10.707031 2.011719-16.089844-2.742187 0-5.574219.089844-8.5.273438 1.007813 8.308593-.625 16.71875-4.664063 24.046875-1.519531 3.101562-4.683593 5.058594-8.136718 5.027344-1.433594.015624-2.847656-.328126-4.113282-1.003907-2.167968-1.082031-3.8125-2.988281-4.566406-5.289062-.757812-2.300781-.5625-4.808594.542969-6.964844 2.496094-4.207031 3.464844-9.148437 2.742187-13.988281-.824218.09375-1.464843.183594-2.285156.277344-2.378906.363281-4.390625.546874-6.582031.730468.246094 7.390625-1.488281 14.714844-5.03125 21.210938-1.515625 3.101562-4.683594 5.058594-8.136719 5.027344-1.433594.015624-2.847656-.328126-4.113281-1.003907-2.167969-1.082031-3.8125-2.988281-4.566406-5.289062-.753907-2.300781-.558594-4.808594.542969-6.964844 2.183593-3.832031 3.230468-8.207031 3.015624-12.617187-11.894531-1.132813-23.160156-5.886719-32.273437-13.621094-3.976563-3.878906-9.113281-6.351563-14.628906-7.039063 5.132812 5.484375 8.371093 12.46875 9.234375 19.929688.519531 12.882812-4.90625 25.285156-14.71875 33.644531-11.304688 11.59375-26.871094 18.039062-43.0625 17.832031-7.023438-.054687-14.007813-1.066406-20.753906-3.019531.804687 12.597656 4.03125 24.921875 9.507812 36.296875 17.390625 9.851563 36.972656 15.195313 56.960938 15.542969 11.28125-.410156 21.953124-5.238282 29.714843-13.4375 16.660157-15.636719 38.878907-23.964844 61.710938-23.132813 30.449219 0 67.109375-11.976562 93.898437-23.496093 2.652344-1.191407 5.304688-2.378907 7.773438-3.476563 10.257812-4.167969 19.984375-9.539063 28.980468-16 5.578126-6.90625 5.578126-16.769531 0-23.679687zm0 0" data-original="#000000" class="active-path" data-old_color="#010100" fill="#000000"/></g> </svg>
